<?xml version="1.0" encoding="UTF-8" standalone="no"?>
<!-- Created with Inkscape (http://www.inkscape.org/) -->

<svg
   xmlns:dc="http://purl.org/dc/elements/1.1/"
   xmlns:cc="http://creativecommons.org/ns#"
   xmlns:rdf="http://www.w3.org/1999/02/22-rdf-syntax-ns#"
   xmlns:svg="http://www.w3.org/2000/svg"
   xmlns="http://www.w3.org/2000/svg"
   xmlns:xlink="http://www.w3.org/1999/xlink"
   xmlns:sodipodi="http://sodipodi.sourceforge.net/DTD/sodipodi-0.dtd"
   xmlns:inkscape="http://www.inkscape.org/namespaces/inkscape"
   width="350"
   height="350"
   id="svg3144"
   version="1.1"
   inkscape:version="0.48.2 r9819"
   sodipodi:docname="joystick_backup.svg">
  <defs
     id="defs3146">
    <linearGradient
       x1="0"
       y1="0"
       x2="1"
       y2="0"
       gradientUnits="userSpaceOnUse"
       gradientTransform="matrix(200.72441,-200.72441,-200.72441,-200.72441,116.1377,316.86133)"
       spreadMethod="pad"
       id="linearGradient5178">
      <stop
         style="stop-opacity:1;stop-color:#f1f1f1"
         offset="0"
         id="stop5180" />
      <stop
         style="stop-opacity:1;stop-color:#919396"
         offset="0.987732"
         id="stop5182" />
      <stop
         style="stop-opacity:1;stop-color:#919396"
         offset="1"
         id="stop5184" />
    </linearGradient>
    <clipPath
       clipPathUnits="userSpaceOnUse"
       id="clipPath5192">
      <path
         inkscape:connector-curvature="0"
         d="M 0,432 432,432 432,0 0,0 0,432 z"
         id="path5194" />
    </clipPath>
    <clipPath
       clipPathUnits="userSpaceOnUse"
       id="clipPath5204">
      <path
         inkscape:connector-curvature="0"
         d="m 71.6167,360.383 285.3603,0 0,-285.3596 -285.3603,0 0,285.3596 z"
         id="path5206" />
    </clipPath>
    <mask
       maskUnits="userSpaceOnUse"
       x="0"
       y="0"
       width="1"
       height="1"
       id="mask5212">
      <g
         id="g5214">
        <g
           clip-path="url(#clipPath5208)"
           id="g5216">
          <g
             id="g5218">
            <g
               transform="matrix(285.36002,0,0,285.36002,71.616699,75.023285)"
               id="g5220" />
          </g>
        </g>
      </g>
    </mask>
    <clipPath
       clipPathUnits="userSpaceOnUse"
       id="clipPath5208">
      <path
         inkscape:connector-curvature="0"
         d="m 71.6167,360.383 285.3603,0 0,-285.3597 -285.3603,0 0,285.3597 z"
         id="path5210" />
    </clipPath>
    <mask
       maskUnits="userSpaceOnUse"
       x="0"
       y="0"
       width="1"
       height="1"
       id="mask5224" />
    <clipPath
       clipPathUnits="userSpaceOnUse"
       id="clipPath5274">
      <path
         inkscape:connector-curvature="0"
         d="M 0,432 432,432 432,0 0,0 0,432 z"
         id="path5276" />
    </clipPath>
    <radialGradient
       fx="0"
       fy="0"
       cx="0"
       cy="0"
       r="1"
       gradientUnits="userSpaceOnUse"
       gradientTransform="matrix(98.492401,0,0,-98.492401,215.52539,216.03125)"
       spreadMethod="pad"
       id="radialGradient5262">
      <stop
         style="stop-opacity:1;stop-color:#59595c"
         offset="0"
         id="stop5264" />
      <stop
         style="stop-opacity:1;stop-color:#151515"
         offset="1"
         id="stop5266" />
    </radialGradient>
    <clipPath
       clipPathUnits="userSpaceOnUse"
       id="clipPath5274-1">
      <path
         inkscape:connector-curvature="0"
         d="M 0,432 432,432 432,0 0,0 0,432 z"
         id="path5276-7" />
    </clipPath>
    <linearGradient
       x1="0"
       y1="0"
       x2="1"
       y2="0"
       gradientUnits="userSpaceOnUse"
       gradientTransform="matrix(117.41699,0,0,-117.41699,158.9082,216.56641)"
       spreadMethod="pad"
       id="linearGradient5298">
      <stop
         style="stop-opacity:1;stop-color:#000000"
         offset="0"
         id="stop5300" />
      <stop
         style="stop-opacity:1;stop-color:#59595c"
         offset="0.5"
         id="stop5302" />
      <stop
         style="stop-opacity:1;stop-color:#000000"
         offset="1"
         id="stop5304" />
    </linearGradient>
    <clipPath
       clipPathUnits="userSpaceOnUse"
       id="clipPath5312">
      <path
         inkscape:connector-curvature="0"
         d="M 0,432 432,432 432,0 0,0 0,432 z"
         id="path5314" />
    </clipPath>
    <clipPath
       clipPathUnits="userSpaceOnUse"
       id="clipPath5440">
      <path
         inkscape:connector-curvature="0"
         d="M 0,432 432,432 432,0 0,0 0,432 z"
         id="path5442" />
    </clipPath>
    <linearGradient
       x1="0"
       y1="0"
       x2="1"
       y2="0"
       gradientUnits="userSpaceOnUse"
       gradientTransform="matrix(10.616333,18.388031,18.388031,-10.616333,211.69141,207.47363)"
       spreadMethod="pad"
       id="linearGradient5460">
      <stop
         style="stop-opacity:1;stop-color:#919396"
         offset="0"
         id="stop5462" />
      <stop
         style="stop-opacity:1;stop-color:#e7e6e6"
         offset="0.539871"
         id="stop5464" />
      <stop
         style="stop-opacity:1;stop-color:#6d6f71"
         offset="0.993866"
         id="stop5466" />
      <stop
         style="stop-opacity:1;stop-color:#6d6f71"
         offset="1"
         id="stop5468" />
    </linearGradient>
    <linearGradient
       x1="0"
       y1="0"
       x2="1"
       y2="0"
       gradientUnits="userSpaceOnUse"
       gradientTransform="matrix(-7.1621094,12.405136,12.405136,7.1621094,220.58203,210.46289)"
       spreadMethod="pad"
       id="linearGradient5484">
      <stop
         style="stop-opacity:1;stop-color:#919396"
         offset="0"
         id="stop5486" />
      <stop
         style="stop-opacity:1;stop-color:#e7e6e6"
         offset="0.539871"
         id="stop5488" />
      <stop
         style="stop-opacity:1;stop-color:#6d6f71"
         offset="0.993866"
         id="stop5490" />
      <stop
         style="stop-opacity:1;stop-color:#6d6f71"
         offset="1"
         id="stop5492" />
    </linearGradient>
    <clipPath
       clipPathUnits="userSpaceOnUse"
       id="clipPath5500">
      <path
         inkscape:connector-curvature="0"
         d="M 0,432 432,432 432,0 0,0 0,432 z"
         id="path5502" />
    </clipPath>
    <linearGradient
       inkscape:collect="always"
       xlink:href="#linearGradient5178"
       id="linearGradient4610"
       gradientUnits="userSpaceOnUse"
       gradientTransform="matrix(200.72441,-200.72441,-200.72441,-200.72441,116.1377,316.86133)"
       spreadMethod="pad"
       x1="0"
       y1="0"
       x2="1"
       y2="0" />
    <radialGradient
       inkscape:collect="always"
       xlink:href="#radialGradient5262"
       id="radialGradient4612"
       gradientUnits="userSpaceOnUse"
       gradientTransform="matrix(98.492401,0,0,-98.492401,215.52539,216.03125)"
       spreadMethod="pad"
       cx="0"
       cy="0"
       fx="0"
       fy="0"
       r="1" />
    <linearGradient
       inkscape:collect="always"
       xlink:href="#linearGradient5298"
       id="linearGradient4614"
       gradientUnits="userSpaceOnUse"
       gradientTransform="matrix(117.41699,0,0,-117.41699,158.9082,216.56641)"
       spreadMethod="pad"
       x1="0"
       y1="0"
       x2="1"
       y2="0" />
    <clipPath
       clipPathUnits="userSpaceOnUse"
       id="clipPath5440-2">
      <path
         inkscape:connector-curvature="0"
         d="M 0,432 432,432 432,0 0,0 0,432 z"
         id="path5442-4" />
    </clipPath>
    <linearGradient
       x1="0"
       y1="0"
       x2="1"
       y2="0"
       gradientUnits="userSpaceOnUse"
       gradientTransform="matrix(10.616333,18.388031,18.388031,-10.616333,211.69141,207.47363)"
       spreadMethod="pad"
       id="linearGradient5460-5">
      <stop
         style="stop-opacity:1;stop-color:#919396"
         offset="0"
         id="stop5462-5" />
      <stop
         style="stop-opacity:1;stop-color:#e7e6e6"
         offset="0.539871"
         id="stop5464-1" />
      <stop
         style="stop-opacity:1;stop-color:#6d6f71"
         offset="0.993866"
         id="stop5466-7" />
      <stop
         style="stop-opacity:1;stop-color:#6d6f71"
         offset="1"
         id="stop5468-1" />
    </linearGradient>
    <linearGradient
       x1="0"
       y1="0"
       x2="1"
       y2="0"
       gradientUnits="userSpaceOnUse"
       gradientTransform="matrix(-7.1621094,12.405136,12.405136,7.1621094,220.58203,210.46289)"
       spreadMethod="pad"
       id="linearGradient5484-1">
      <stop
         style="stop-opacity:1;stop-color:#919396"
         offset="0"
         id="stop5486-5" />
      <stop
         style="stop-opacity:1;stop-color:#e7e6e6"
         offset="0.539871"
         id="stop5488-2" />
      <stop
         style="stop-opacity:1;stop-color:#6d6f71"
         offset="0.993866"
         id="stop5490-7" />
      <stop
         style="stop-opacity:1;stop-color:#6d6f71"
         offset="1"
         id="stop5492-6" />
    </linearGradient>
    <clipPath
       clipPathUnits="userSpaceOnUse"
       id="clipPath5500-1">
      <path
         inkscape:connector-curvature="0"
         d="M 0,432 432,432 432,0 0,0 0,432 z"
         id="path5502-4" />
    </clipPath>
  </defs>
  <sodipodi:namedview
     id="base"
     pagecolor="#ffffff"
     bordercolor="#666666"
     borderopacity="1.0"
     inkscape:pageopacity="0.0"
     inkscape:pageshadow="2"
     inkscape:zoom="1"
     inkscape:cx="206.66971"
     inkscape:cy="187.02942"
     inkscape:document-units="px"
     inkscape:current-layer="layer1"
     showgrid="false"
     inkscape:window-width="1280"
     inkscape:window-height="776"
     inkscape:window-x="0"
     inkscape:window-y="24"
     inkscape:window-maximized="1"
     fit-margin-top="0"
     fit-margin-left="0"
     fit-margin-right="0"
     fit-margin-bottom="0" />
  <metadata
     id="metadata3149">
    <rdf:RDF>
      <cc:Work
         rdf:about="">
        <dc:format>image/svg+xml</dc:format>
        <dc:type
           rdf:resource="http://purl.org/dc/dcmitype/StillImage" />
        <dc:title></dc:title>
      </cc:Work>
    </rdf:RDF>
  </metadata>
  <g
     inkscape:label="Layer 1"
     inkscape:groupmode="layer"
     id="layer1"
     transform="translate(-192.43267,-355.17173)">
    <g
       id="background"
       transform="matrix(-1,0,0,-1,734.86534,1060.3435)">
      <g
         id="g5250"
         transform="matrix(2.1801284,0,0,-2.1651985,-106.77687,997.92173)">
        <g
           id="g5252">
          <g
             id="g5258">
            <g
               id="g5260">
              <path
                 id="path5268"
                 style="fill:url(#radialGradient4612);stroke:none"
                 d="m 137.244,296.855 0,-161.648 160.541,0 0,161.648 z"
                 inkscape:connector-curvature="0"
                 sodipodi:nodetypes="ccccc" />
            </g>
          </g>
        </g>
      </g>
      <g
         id="g5270"
         transform="matrix(2.0554839,0,0,-2.5718511,-78.067977,1087.1488)">
        <g
           clip-path="url(#clipPath5274)"
           id="g5272">
          <g
             transform="translate(137.2437,296.855)"
             id="g5278" />
          <g
             transform="translate(281.9736,174.6816)"
             id="g5282">
            <path
               id="path5284"
               style="fill:#000000;fill-opacity:1;fill-rule:nonzero;stroke:none"
               d="m 0,0 c 0,-2.637 -2.141,-4.774 -4.776,-4.774 l -119.594,0 c -2.636,0 -4.775,2.137 -4.775,4.774 0,0 -6.634,27.515 -6.634,41.663 0,15.922 6.634,42.105 6.634,42.105 0,2.638 2.139,4.776 4.775,4.776 l 119.594,0 C -2.141,88.544 0,86.406 0,83.768 0,83.768 5.307,61.565 5.307,44.316 5.307,24.854 0,0 0,0"
               inkscape:connector-curvature="0" />
          </g>
        </g>
      </g>
      <g
         id="g5286"
         transform="matrix(1.9824323,0,0,-2.3418957,-63.977309,1037.3467)">
        <g
           id="g5288">
          <g
             id="g5294">
            <g
               id="g5296">
              <path
                 id="path5306"
                 style="fill:url(#linearGradient4614);stroke:none"
                 d="m 164.918,257.638 c -3.32,0 -6.01,-1.376 -6.01,-3.071 l 0,0 0,-76.852 c 0,-1.697 2.69,-3.068 6.01,-3.068 l 0,0 c 0,0 31.274,-3.415 55.758,-3.415 l 0,0 c 21.704,0 49.639,3.415 49.639,3.415 l 0,0 c 3.319,0 6.01,1.371 6.01,3.068 l 0,0 0,76.852 c 0,1.695 -2.691,3.071 -6.01,3.071 l 0,0 c 0,0 -32.943,4.262 -52.976,4.262 l 0,0 c -17.803,0 -52.421,-4.262 -52.421,-4.262"
                 inkscape:connector-curvature="0" />
              <path
                 inkscape:connector-curvature="0"
                 d="m 230.37636,250.71003 c -2.17329,0.033 -4.07818,-0.74441 -4.89962,-2.96338 l -7.50827,-21.4873 12.0835,-5.58922 5.21051,16.74478 c 1.47779,1.93393 3.64144,1.18998 5.91333,0.0229 l 17.91575,-9.9885 c 1.55517,-1.11463 2.62015,-2.61165 2.52077,-5.01141 L 260.504,209.15423 c -0.22615,-1.82228 -1.53132,-2.95807 -2.55454,-2.80319 l -28.30296,13.01479 -5.00777,-16.06398 6.88649,-2.11096 0,-0.006 28.2827,-8.6613 c 4.22086,-1.30809 7.99445,2.64696 8.12999,8.53541 l 0.12168,21.16122 c -0.0821,5.19633 -3.0641,8.04332 -6.04176,10.08004 l -23.63985,15.62346 c -1.96821,1.36137 -5.20744,2.74367 -8.00162,2.78605 z m -23.85729,-20.7157 -5.60248,-19.43351 3.59532,-1.09841 21.09189,-6.45887 4.96056,15.94101 -24.04529,11.04978 z m 3.38697,-26.78405 -5.09561,-14.57083 13.33374,-6.2185 5.3119,17.07083 -13.55003,3.7185 z m -8.40436,21.11911 -2.45072,1.17481 2.15214,6.72597 -5.44553,2.51793 -12.01381,-4.31702 -16.57034,3.71127 14.73314,-8.4497 5.76328,-11.6808 7.46751,-2.07184 2.34697,7.46899 2.31451,-0.31031 1.70285,5.2307 z"
                 style="fill:#000000;fill-opacity:1;stroke:none;display:inline"
                 id="path2587"
                 sodipodi:nodetypes="ccccccccccccccccccccccccccccccccccccccccccc" />
            </g>
          </g>
        </g>
      </g>
      <g
         id="g3187"
         transform="translate(68.069996,3.7770787)">
        <path
           d="m 474.11267,531.3309 -12,0 0,-10 12,0 0,10 z"
           style="fill:#58595b;fill-opacity:1;fill-rule:nonzero;stroke:none"
           id="path5316"
           inkscape:connector-curvature="0" />
        <path
           sodipodi:nodetypes="ccccc"
           d="m 474.36267,546.2559 -6.25043,0 0,-4.89375 6.25043,0 z"
           style="fill:#58595b;fill-opacity:1;fill-rule:nonzero;stroke:none"
           id="path5318"
           inkscape:connector-curvature="0" />
        <path
           sodipodi:nodetypes="ccccc"
           d="m 474.36267,561.18215 -6.25043,0 0,-4.895 6.25043,0 z"
           style="fill:#58595b;fill-opacity:1;fill-rule:nonzero;stroke:none"
           id="path5320"
           inkscape:connector-curvature="0" />
        <path
           sodipodi:nodetypes="ccccc"
           d="m 474.36267,576.10965 -6.25043,0 0,-4.89375 6.25043,0 z"
           style="fill:#58595b;fill-opacity:1;fill-rule:nonzero;stroke:none"
           id="path5322"
           inkscape:connector-curvature="0" />
        <path
           sodipodi:nodetypes="ccccc"
           d="m 474.36267,481.5734 -6.25043,0 0,-4.89375 6.25043,0 z"
           style="fill:#58595b;fill-opacity:1;fill-rule:nonzero;stroke:none"
           id="path5324"
           inkscape:connector-curvature="0" />
        <path
           sodipodi:nodetypes="ccccc"
           d="m 474.36267,496.50215 -6.25043,0 0,-4.895 6.25043,0 z"
           style="fill:#58595b;fill-opacity:1;fill-rule:nonzero;stroke:none"
           id="path5326"
           inkscape:connector-curvature="0" />
        <path
           sodipodi:nodetypes="ccccc"
           d="m 474.36267,511.42715 -6.25043,0 0,-4.895 6.25043,0 z"
           style="fill:#58595b;fill-opacity:1;fill-rule:nonzero;stroke:none"
           id="path5328"
           inkscape:connector-curvature="0" />
      </g>
      <g
         id="g3178"
         transform="translate(-79.039998,4.0620787)">
        <path
           sodipodi:nodetypes="ccccc"
           d="m 271.47267,531.13832 12,0 0,-10.05733 -12,0 z"
           style="fill:#58595b;fill-opacity:1;fill-rule:nonzero;stroke:none"
           id="path5330"
           inkscape:connector-curvature="0" />
        <path
           sodipodi:nodetypes="ccccc"
           d="m 271.47267,544.41693 8.51457,0 0,-4.92181 -8.51457,0 z"
           style="fill:#58595b;fill-opacity:1;fill-rule:nonzero;stroke:none"
           id="path5332"
           inkscape:connector-curvature="0" />
        <path
           sodipodi:nodetypes="ccccc"
           d="m 271.47267,560.26391 8.51457,0 0,-4.92307 -8.51457,0 z"
           style="fill:#58595b;fill-opacity:1;fill-rule:nonzero;stroke:none"
           id="path5334"
           inkscape:connector-curvature="0" />
        <path
           sodipodi:nodetypes="ccccc"
           d="m 271.47267,576.10965 8.51457,0 0,-4.9218 -8.51457,0 z"
           style="fill:#58595b;fill-opacity:1;fill-rule:nonzero;stroke:none"
           id="path5336"
           inkscape:connector-curvature="0" />
        <path
           sodipodi:nodetypes="ccccc"
           d="m 271.47267,481.03145 8.51457,0 0,-4.9218 -8.51457,0 z"
           style="fill:#58595b;fill-opacity:1;fill-rule:nonzero;stroke:none"
           id="path5338"
           inkscape:connector-curvature="0" />
        <path
           sodipodi:nodetypes="ccccc"
           d="m 271.47267,496.87845 8.51457,0 0,-4.92307 -8.51457,0 z"
           style="fill:#58595b;fill-opacity:1;fill-rule:nonzero;stroke:none"
           id="path5340"
           inkscape:connector-curvature="0" />
        <path
           sodipodi:nodetypes="ccccc"
           d="m 271.47267,512.72482 8.51457,0 0,-4.92307 -8.51457,0 z"
           style="fill:#58595b;fill-opacity:1;fill-rule:nonzero;stroke:none"
           id="path5342"
           inkscape:connector-curvature="0" />
      </g>
      <g
         transform="matrix(2.1491775,0,0,-2.1533094,540.82696,703.01842)"
         id="g5344">
        <path
           inkscape:connector-curvature="0"
           id="path5346"
           style="fill:none;stroke:#a6a8ab;stroke-width:1;stroke-linecap:butt;stroke-linejoin:miter;stroke-miterlimit:10;stroke-opacity:1;stroke-dasharray:none"
           d="m 0,0 0,-0.5 -0.5,0" />
      </g>
      <g
         transform="matrix(2.1491775,0,0,-2.1533094,194.72234,704.09508)"
         id="g5352">
        <path
           inkscape:connector-curvature="0"
           id="path5354"
           style="fill:none;stroke:#a6a8ab;stroke-width:1;stroke-linecap:butt;stroke-linejoin:miter;stroke-miterlimit:10;stroke-opacity:1;stroke-dasharray:none"
           d="m 0,0 -0.5,0 0,0.5" />
      </g>
      <g
         transform="matrix(2.1491775,0,0,-2.1533094,193.64775,357.32504)"
         id="g5360">
        <path
           inkscape:connector-curvature="0"
           id="path5362"
           style="fill:none;stroke:#a6a8ab;stroke-width:1;stroke-linecap:butt;stroke-linejoin:miter;stroke-miterlimit:10;stroke-opacity:1;stroke-dasharray:none"
           d="m 0,0 0,0.5 0.5,0" />
      </g>
      <g
         transform="matrix(2.1491775,0,0,-2.1533094,539.75238,356.24838)"
         id="g5368">
        <path
           inkscape:connector-curvature="0"
           id="path5370"
           style="fill:none;stroke:#a6a8ab;stroke-width:1;stroke-linecap:butt;stroke-linejoin:miter;stroke-miterlimit:10;stroke-opacity:1;stroke-dasharray:none"
           d="m 0,0 0.5,0 0,-0.5" />
      </g>
      <g
         id="joystickArea"
         transform="matrix(1.7226475,0,0,1.719342,-275.21722,-375.2866)">
        <g
           id="g5348"
           transform="matrix(1.25,0,0,-1.25,470.90461,627.70715)">
          <path
             d="M 0,0 -157.549,0"
             style="fill:none;stroke:#a6a8ab;stroke-width:1;stroke-linecap:butt;stroke-linejoin:miter;stroke-miterlimit:10;stroke-opacity:1;stroke-dasharray:0.997, 1.994;stroke-dashoffset:0"
             id="path5350"
             inkscape:connector-curvature="0" />
        </g>
        <g
           id="g5356"
           transform="matrix(1.25,0,0,-1.25,272.09661,624.58952)">
          <path
             d="M 0,0 0,157.549"
             style="fill:none;stroke:#a6a8ab;stroke-width:1;stroke-linecap:butt;stroke-linejoin:miter;stroke-miterlimit:10;stroke-opacity:1;stroke-dasharray:0.997, 1.994;stroke-dashoffset:0"
             id="path5358"
             inkscape:connector-curvature="0" />
        </g>
        <g
           id="g5364"
           transform="matrix(1.25,0,0,-1.25,275.21424,425.78152)">
          <path
             d="M 0,0 157.549,0"
             style="fill:none;stroke:#a6a8ab;stroke-width:1;stroke-linecap:butt;stroke-linejoin:miter;stroke-miterlimit:10;stroke-opacity:1;stroke-dasharray:0.997, 1.994;stroke-dashoffset:0"
             id="path5366"
             inkscape:connector-curvature="0" />
        </g>
        <g
           id="g5372"
           transform="matrix(1.25,0,0,-1.25,474.02224,428.89915)">
          <path
             d="M 0,0 0,-157.549"
             style="fill:none;stroke:#a6a8ab;stroke-width:1;stroke-linecap:butt;stroke-linejoin:miter;stroke-miterlimit:10;stroke-opacity:1;stroke-dasharray:0.997, 1.994;stroke-dashoffset:0"
             id="path5374"
             inkscape:connector-curvature="0" />
        </g>
      </g>
      <g
         transform="matrix(1.25,0,0,-1.25,199.91424,370.02053)"
         id="g5408">
        <path
           inkscape:connector-curvature="0"
           id="path5410"
           style="fill:#ffffff;fill-opacity:1;fill-rule:nonzero;stroke:none"
           d="m 0,0 -1.811,0 0,4.957 c 0,0.102 10e-4,0.224 0.003,0.366 0.002,0.143 0.006,0.291 0.012,0.446 0.006,0.154 0.012,0.309 0.018,0.465 0.006,0.157 0.01,0.299 0.014,0.428 C -1.783,6.639 -1.816,6.604 -1.863,6.557 -1.91,6.51 -1.963,6.458 -2.021,6.401 -2.08,6.345 -2.141,6.287 -2.203,6.229 -2.266,6.17 -2.326,6.117 -2.385,6.07 L -3.369,5.279 -4.248,6.369 -1.488,8.566 0,8.566 0,0 z" />
      </g>
      <g
         transform="matrix(1.25,0,0,-1.25,204.90937,364.66653)"
         id="g5412">
        <path
           inkscape:connector-curvature="0"
           id="path5414"
           style="fill:#ffffff;fill-opacity:1;fill-rule:nonzero;stroke:none"
           d="m 0,0 c 0,-0.977 0.084,-1.711 0.252,-2.203 0.168,-0.492 0.458,-0.738 0.873,-0.738 0.406,0 0.699,0.244 0.876,0.732 C 2.179,-1.721 2.267,-0.984 2.267,0 2.267,0.98 2.179,1.718 2.001,2.212 1.824,2.706 1.531,2.953 1.125,2.953 0.917,2.953 0.744,2.891 0.601,2.766 0.458,2.641 0.342,2.455 0.252,2.209 0.162,1.963 0.098,1.655 0.059,1.286 0.02,0.917 0,0.488 0,0 m 4.066,0 c 0,-0.691 -0.053,-1.309 -0.16,-1.852 C 3.798,-2.395 3.626,-2.855 3.39,-3.234 3.154,-3.613 2.849,-3.902 2.476,-4.102 2.103,-4.301 1.652,-4.4 1.125,-4.4 c -0.497,0 -0.928,0.099 -1.295,0.298 -0.367,0.2 -0.672,0.489 -0.914,0.868 -0.242,0.379 -0.423,0.839 -0.542,1.382 -0.119,0.543 -0.179,1.161 -0.179,1.852 0,0.691 0.054,1.311 0.161,1.857 0.108,0.547 0.279,1.01 0.513,1.389 0.235,0.379 0.537,0.669 0.908,0.87 0.371,0.201 0.82,0.302 1.348,0.302 0.492,0 0.921,-0.1 1.289,-0.299 C 2.781,3.92 3.087,3.631 3.333,3.252 3.58,2.873 3.763,2.41 3.884,1.863 4.005,1.316 4.066,0.695 4.066,0" />
      </g>
      <g
         transform="matrix(1.25,0,0,-1.25,213.17049,364.66653)"
         id="g5416">
        <path
           inkscape:connector-curvature="0"
           id="path5418"
           style="fill:#ffffff;fill-opacity:1;fill-rule:nonzero;stroke:none"
           d="m 0,0 c 0,-0.977 0.084,-1.711 0.252,-2.203 0.168,-0.492 0.459,-0.738 0.873,-0.738 0.406,0 0.698,0.244 0.876,0.732 C 2.179,-1.721 2.268,-0.984 2.268,0 2.268,0.98 2.179,1.718 2.001,2.212 1.823,2.706 1.531,2.953 1.125,2.953 0.918,2.953 0.743,2.891 0.601,2.766 0.458,2.641 0.342,2.455 0.252,2.209 0.162,1.963 0.098,1.655 0.059,1.286 0.02,0.917 0,0.488 0,0 M 4.066,0 C 4.066,-0.691 4.013,-1.309 3.905,-1.852 3.798,-2.395 3.626,-2.855 3.39,-3.234 3.153,-3.613 2.849,-3.902 2.476,-4.102 2.103,-4.301 1.652,-4.4 1.125,-4.4 c -0.496,0 -0.928,0.099 -1.295,0.298 -0.367,0.2 -0.672,0.489 -0.914,0.868 -0.242,0.379 -0.423,0.839 -0.542,1.382 -0.119,0.543 -0.179,1.161 -0.179,1.852 0,0.691 0.054,1.311 0.161,1.857 0.108,0.547 0.279,1.01 0.513,1.389 0.235,0.379 0.537,0.669 0.908,0.87 0.371,0.201 0.821,0.302 1.348,0.302 0.492,0 0.922,-0.1 1.289,-0.299 C 2.781,3.92 3.088,3.631 3.334,3.252 3.58,2.873 3.764,2.41 3.885,1.863 4.006,1.316 4.066,0.695 4.066,0" />
      </g>
      <g
         transform="matrix(1.25,0,0,-1.25,228.22174,366.79791)"
         id="g5420">
        <path
           inkscape:connector-curvature="0"
           id="path5422"
           style="fill:#ffffff;fill-opacity:1;fill-rule:nonzero;stroke:none"
           d="m 0,0 c 0,-0.496 0.044,-0.866 0.132,-1.11 0.088,-0.244 0.229,-0.367 0.425,-0.367 0.191,0 0.333,0.122 0.424,0.364 C 1.073,-0.871 1.119,-0.5 1.119,0 1.119,0.977 0.932,1.465 0.557,1.465 0.361,1.465 0.22,1.345 0.132,1.104 0.044,0.864 0,0.496 0,0 m 2.596,0.012 c 0,-0.422 -0.04,-0.8 -0.12,-1.134 C 2.396,-1.456 2.271,-1.738 2.104,-1.969 1.936,-2.199 1.723,-2.376 1.465,-2.499 1.207,-2.622 0.9,-2.684 0.545,-2.684 c -0.332,0 -0.623,0.062 -0.873,0.185 -0.25,0.123 -0.46,0.3 -0.63,0.53 -0.17,0.231 -0.298,0.513 -0.384,0.847 -0.086,0.334 -0.129,0.712 -0.129,1.134 0,0.422 0.039,0.799 0.117,1.131 0.079,0.332 0.2,0.612 0.364,0.84 0.164,0.229 0.373,0.404 0.627,0.525 0.254,0.121 0.556,0.181 0.908,0.181 0.336,0 0.632,-0.06 0.888,-0.181 C 1.688,2.387 1.902,2.212 2.074,1.983 2.246,1.755 2.376,1.475 2.464,1.143 2.552,0.811 2.596,0.434 2.596,0.012 m -1.852,5.976 -4.752,-8.566 -1.4,0 4.752,8.566 1.4,0 z M -5.76,3.422 c 0,-0.496 0.044,-0.866 0.132,-1.11 0.088,-0.245 0.23,-0.367 0.425,-0.367 0.191,0 0.333,0.121 0.425,0.364 0.091,0.242 0.137,0.613 0.137,1.113 0,0.976 -0.187,1.465 -0.562,1.465 -0.195,0 -0.337,-0.12 -0.425,-0.361 C -5.716,4.286 -5.76,3.918 -5.76,3.422 m 2.596,0.012 c 0,-0.422 -0.04,-0.801 -0.12,-1.137 C -3.364,1.961 -3.488,1.678 -3.656,1.447 -3.824,1.217 -4.037,1.04 -4.295,0.917 -4.553,0.794 -4.859,0.732 -5.215,0.732 c -0.332,0 -0.624,0.062 -0.876,0.185 -0.252,0.123 -0.463,0.3 -0.633,0.53 -0.17,0.231 -0.297,0.514 -0.383,0.85 -0.086,0.336 -0.129,0.715 -0.129,1.137 0,0.421 0.039,0.798 0.117,1.13 0.078,0.332 0.2,0.613 0.366,0.841 0.166,0.229 0.376,0.404 0.63,0.525 0.254,0.121 0.557,0.181 0.908,0.181 0.336,0 0.632,-0.06 0.888,-0.181 0.256,-0.121 0.47,-0.296 0.641,-0.525 0.172,-0.228 0.302,-0.509 0.39,-0.841 0.088,-0.332 0.132,-0.709 0.132,-1.13" />
      </g>
    </g>
    <g
       transform="matrix(-2.8927652,0,0,2.8929326,954.16416,-120.63043)"
       id="joystickEnd"
       inkscape:label="#STICK">
      <g
         id="g5436">
        <g
           clip-path="url(#clipPath5440-2)"
           id="g5438">
          <g
             transform="translate(217.001,233.9502)"
             id="g5444">
            <path
               inkscape:connector-curvature="0"
               id="path5446"
               style="fill:#39b24a;fill-opacity:1;fill-rule:nonzero;stroke:none"
               d="m 0,0 c -9.531,0 -17.285,-7.753 -17.285,-17.283 0,-9.53 7.754,-17.284 17.285,-17.284 9.53,0 17.284,7.754 17.284,17.284 C 17.284,-7.753 9.53,0 0,0 m 0,-3 c 7.876,0 14.284,-6.408 14.284,-14.283 0,-7.876 -6.408,-14.284 -14.284,-14.284 -7.876,0 -14.285,6.408 -14.285,14.284 C -14.285,-9.408 -7.876,-3 0,-3" />
          </g>
        </g>
      </g>
      <g
         id="g5448">
        <g
           id="g5450">
          <g
             id="g5456">
            <g
               id="g5458">
              <path
                 inkscape:connector-curvature="0"
                 id="path5470"
                 style="fill:url(#linearGradient5460-5);stroke:none"
                 d="m 206.383,216.668 c 0,-5.857 4.763,-10.62 10.618,-10.62 l 0,0 c 5.855,0 10.618,4.763 10.618,10.62 l 0,0 c 0,5.853 -4.763,10.617 -10.618,10.617 l 0,0 c -5.855,0 -10.618,-4.764 -10.618,-10.617" />
            </g>
          </g>
        </g>
      </g>
      <g
         id="g5472">
        <g
           id="g5474">
          <g
             id="g5480">
            <g
               id="g5482">
              <path
                 inkscape:connector-curvature="0"
                 id="path5494"
                 style="fill:url(#linearGradient5484-1);stroke:none"
                 d="m 209.838,216.667 c 0,-3.95 3.213,-7.164 7.163,-7.164 l 0,0 c 3.95,0 7.163,3.214 7.163,7.164 l 0,0 c 0,3.949 -3.213,7.163 -7.163,7.163 l 0,0 c -3.95,0 -7.163,-3.214 -7.163,-7.163" />
            </g>
          </g>
        </g>
      </g>
      <g
         id="g5496">
        <g
           clip-path="url(#clipPath5500-1)"
           id="g5498">
          <g
             transform="translate(217.001,224.8296)"
             id="g5504">
            <path
               inkscape:connector-curvature="0"
               id="path5506"
               style="fill:#6d6f71;fill-opacity:1;fill-rule:nonzero;stroke:none"
               d="m 0,0 c -4.509,0 -8.164,-3.654 -8.164,-8.163 0,-4.508 3.655,-8.164 8.164,-8.164 4.508,0 8.163,3.656 8.163,8.164 C 8.163,-3.654 4.508,0 0,0 m 0,-2 c 3.398,0 6.163,-2.765 6.163,-6.163 0,-3.399 -2.765,-6.164 -6.163,-6.164 -3.398,0 -6.164,2.765 -6.164,6.164 C -6.164,-4.765 -3.398,-2 0,-2" />
          </g>
        </g>
      </g>
    </g>
    <g
       style="display:inline"
       id="opheader"
       transform="matrix(-0.10833332,0,0,-0.10833333,-207.28416,1010.4611)"
       inkscape:label="#opheader">
      <path
         inkscape:export-ydpi="67.720001"
         inkscape:export-xdpi="67.720001"
         inkscape:export-filename="C:\Documents and Settings\t12\My Documents\My Dropbox\graphicswork\openpilot.org\openpilot_logo_horizontal_2000x451.png"
         id="rect6980"
         d="m 174.59375,1466.25 c -14.41735,0 -26,11.6139 -26,26.0312 l 0,547.9376 c 0,14.4173 11.58265,26.0313 26,26.0312 l 544.8125,0 3.15625,0 2062.7813,0 c 11.8716,0 21.4375,-11.8272 21.4374,-26.5312 l 0,-546.9376 c 1e-4,-14.704 -9.5658,-26.5311 -21.4374,-26.5312 l -2062.7813,0 -3.15625,0 -544.8125,0 z"
         style="fill:#656565;fill-opacity:1;fill-rule:nonzero;stroke:none;stroke-width:2.4000001;marker:none;visibility:visible;display:inline;overflow:visible;enable-background:accumulate"
         transform="translate(-6671.9971,1494.883)"
         inkscape:connector-curvature="0" />
      <g
         transform="matrix(1.1091012,0,0,1.1091012,189.97314,-2983.3662)"
         id="g6986"
         style="display:inline">
        <g
           id="g6988"
           transform="translate(0,680)">
          <path
             inkscape:export-ydpi="122.68"
             inkscape:export-xdpi="122.68"
             inkscape:export-filename="C:\Documents and Settings\t12\My Documents\My Dropbox\graphicswork\openpilot.org\textplay.png"
             style="fill:#c8c8c8;fill-opacity:1;stroke:none"
             d="m -5825.8879,5104.6255 98.5442,-332.9509 c 8.6822,-27.7055 43.478,-14.1997 59.6577,-0.9794 l 109.2989,85.347 c 13.7689,11.1255 27.559,26.6811 27.9384,55.0662 l -0.5601,115.5892 c -0.6268,32.1662 -18.0787,53.7714 -37.5963,46.6259 l -272.4028,-98.5908 25.9138,-106.1667 237.9068,129.2372 c 4.7314,0.8459 10.7464,-5.3779 11.7921,-15.3321 l 5.1307,-72.5362 c 0.4593,-13.1087 -4.4451,-21.2957 -11.6363,-27.3844 l -82.8524,-54.5691 c -10.5056,-6.3754 -20.5097,-10.4375 -27.3432,0.1267 l -81.2396,308.3303 -62.5519,-31.8129 0,0 z"
             id="path6990"
             sodipodi:nodetypes="cccccccccccccccccc"
             inkscape:connector-curvature="0" />
          <path
             inkscape:export-ydpi="122.68"
             inkscape:export-xdpi="122.68"
             inkscape:export-filename="C:\Documents and Settings\t12\My Documents\My Dropbox\graphicswork\openpilot.org\textplay.png"
             inkscape:transform-center-y="82.140396"
             inkscape:transform-center-x="-8.1593243"
             style="fill:#4e94f6;fill-opacity:1;stroke:none"
             d="m -5838.2115,4899.5917 -11.3323,-6.4174 9.9517,-36.7409 -25.1805,-13.7542 -55.5528,23.5818 -76.6225,-20.2729 68.1271,46.1567 26.6499,63.8068 34.5303,11.3175 10.8525,-40.7996 10.7025,1.6951 7.8741,-28.5729 z"
             id="path6992"
             sodipodi:nodetypes="cccccccccccc"
             inkscape:connector-curvature="0" />
          <path
             inkscape:export-ydpi="122.68"
             inkscape:export-xdpi="122.68"
             inkscape:export-filename="C:\Documents and Settings\t12\My Documents\My Dropbox\graphicswork\openpilot.org\textplay.png"
             inkscape:transform-center-y="8.5556329"
             inkscape:transform-center-x="-10.346278"
             style="fill:#646464;fill-opacity:1;fill-rule:evenodd;stroke:none"
             d="m -5824.3691,4980.7496 124.9996,45.2523 -5.3129,19.6479 -126.5523,-40.9941 6.8656,-23.9061 z"
             id="path6994"
             sodipodi:nodetypes="ccccc"
             inkscape:connector-curvature="0" />
          <path
             inkscape:export-ydpi="122.68"
             inkscape:export-xdpi="122.68"
             inkscape:export-filename="C:\Documents and Settings\t12\My Documents\My Dropbox\graphicswork\openpilot.org\textplay.png"
             sodipodi:nodetypes="ccccc"
             id="path6996"
             d="m -5763.5285,4888.2394 59.3607,32.4774 -3.8858,5.9964 -56.7523,-30.8294 1.2774,-7.6444 z"
             style="fill:#646464;fill-opacity:1;fill-rule:evenodd;stroke:none"
             inkscape:transform-center-x="-10.346278"
             inkscape:transform-center-y="8.5556329"
             inkscape:connector-curvature="0" />
        </g>
      </g>
      <path
         inkscape:export-ydpi="122.68"
         inkscape:export-xdpi="122.68"
         inkscape:export-filename="C:\Documents and Settings\t12\My Documents\My Dropbox\graphicswork\openpilot.org\textplay.png"
         sodipodi:nodetypes="ccccccccscccccccccccccccccccsccccscccccccccccscccccsccccscccccccccccsscccssscccscccccccscccccccccsccccccsccccccccccsscccssscccscccccccssscccsccccccscccccsccccsscccsccccccsccsscccsssccccsccccscccsccccscccsccccccccccccccsccccscccscccccccccccccsccccsccsccccsc"
         id="path6998"
         d="m -4629.6988,3137.7927 0,30.5856 31.0973,0 0,-30.5856 -31.0973,0 z m 52.7835,0 0,139.6308 0,0.2046 c 0,8.0123 1.4846,15.4829 4.3986,22.4022 2.9136,6.9203 6.9942,13.0075 12.2752,18.1062 5.2806,5.281 11.3908,9.3839 18.3104,12.4798 6.9197,2.9134 14.2652,4.3988 22.0955,4.3988 l 6.3425,0 0,-29.2564 -5.7284,-0.2042 c -7.2839,-0.5467 -13.6438,-3.5159 -18.9245,-8.7977 -2.3674,-2.5492 -4.2716,-5.4173 -5.7285,-8.6947 -1.2746,-3.2777 -1.8416,-6.8145 -1.8412,-10.6386 l 0,-139.6308 -31.1996,0 z m 303.4032,15.5486 0,34.78 -13.9119,0 0,29.4606 13.9119,0 0,60.3528 c 0,8.0128 1.4855,15.483 4.3989,22.4026 3.0955,6.7377 7.1769,12.7228 12.2752,18.0038 5.2809,5.2807 11.3904,9.3613 18.3107,12.2752 6.9193,2.9134 14.3896,4.3988 22.4021,4.3988 l 22.4023,0 0,-29.4606 -22.0955,0 c -7.648,-0.5467 -13.9051,-3.5159 -18.8221,-8.7977 -2.367,-2.5492 -4.3742,-5.4173 -5.8305,-8.6947 -1.2747,-3.2777 -1.841,-6.7922 -1.8413,-10.434 l 0,-60.0462 48.5894,0 0,-6.2402 0,-23.2204 -48.5894,0 0,-34.78 -31.1998,0 z m -723.217,40.7127 c -8.0125,0 -15.483,1.61 -22.4023,4.7058 -6.7378,2.9135 -12.7236,6.9942 -18.0039,12.2752 -5.2809,5.2808 -9.4643,11.3912 -12.3773,18.3105 -2.9137,6.7376 -4.2969,14.0834 -4.2966,22.0954 l 0,83.5742 31.0973,0 0,-83.2675 c 0,-7.8296 2.7207,-14.4837 8.1835,-19.9471 2.5496,-2.5494 5.5195,-4.5788 8.7975,-6.0352 3.4596,-1.4566 7.0195,-2.1483 10.8429,-2.1483 l 72.1173,0 c 3.8239,0 7.4623,0.691 10.7409,2.1483 3.4597,1.457 6.4516,3.4861 9.002,6.0352 5.4622,5.463 8.1827,12.1172 8.1835,19.9471 l 0,83.2675 8.8993,0 22.198,0 21.6863,0 0,56.237 31.1994,0 0,-56.237 26.1872,0 64.4451,0 11.457,0 c 7.8299,0 15.2779,-1.4858 22.1979,-4.3988 6.9193,-2.9135 12.9269,-6.9945 18.208,-12.2752 5.2809,-5.281 9.4642,-11.2661 12.3776,-18.0038 2.9132,-6.9196 4.296,-14.3892 4.2963,-22.4026 l 0,-26.1871 c -3e-4,-8.0119 -1.3827,-15.4821 -4.2963,-22.4021 -2.9136,-6.9197 -7.097,-13.0297 -12.3776,-18.3105 -5.2807,-5.2806 -11.2887,-9.3617 -18.208,-12.2752 -6.9197,-2.9136 -14.3684,-4.3982 -22.1979,-4.3988 l -75.9021,0 c -8.0124,3e-4 -15.4819,1.4852 -22.4026,4.3988 -6.7376,2.9135 -12.7226,6.9942 -18.0037,12.2752 -5.2806,5.2808 -9.4865,11.3912 -12.5819,18.3105 -2.9133,6.9196 -4.3984,14.3898 -4.3984,22.4021 l 0,53.8069 -21.6863,0 0,-53.8069 0,-0.3067 c 0,-8.0123 -1.4856,-15.3574 -4.3989,-22.0954 -2.9136,-6.9197 -6.9942,-13.0297 -12.2753,-18.3105 -5.2809,-5.2806 -11.3907,-9.3617 -18.3107,-12.2752 -6.7375,-3.0958 -14.0824,-4.7058 -22.0954,-4.7058 l -75.9018,0 z m 367.0303,0 0,140.9611 31.0973,0 0,-140.9611 -31.0973,0 z m -1003.8094,0.307 c -8.0123,3e-4 -15.4819,1.4852 -22.4021,4.3988 -6.92,2.9135 -12.9045,6.9942 -18.0038,12.2752 -5.2809,5.2808 -9.4863,11.3912 -12.5823,18.3105 -2.9133,6.9196 -4.2963,14.3898 -4.2963,22.4021 l 0,26.1871 c 0,8.0128 1.3833,15.483 4.2963,22.4026 3.0957,6.7377 7.3021,12.7228 12.5823,18.0038 5.0987,5.2807 11.0844,9.3613 18.0038,12.2752 6.9195,2.9134 14.3892,4.3988 22.4021,4.3988 l 56.8755,0 18.8221,0 79.2774,0 0,56.237 31.1997,0 0,-56.237 26.1873,0 10.2294,0 65.6726,0 c 7.83,0 15.279,-1.4858 22.1976,-4.3988 6.9196,-2.9135 13.0304,-6.9945 18.3108,-12.2752 5.2805,-5.281 9.3609,-11.2661 12.2752,-18.0038 2.9134,-6.9196 4.3982,-14.3892 4.3988,-22.4026 l 0,-26.1871 c -6e-4,-8.0119 -1.486,-15.4821 -4.3988,-22.4021 -2.9137,-6.9197 -6.994,-13.0297 -12.2752,-18.3105 -5.281,-5.2806 -11.3903,-9.3617 -18.3108,-12.2752 -6.9197,-2.9136 -14.3672,-4.3982 -22.1976,-4.3988 l -75.902,0 c -8.0123,3e-4 -15.4838,1.4852 -22.4021,4.3988 -6.7378,2.9135 -12.7241,6.9942 -18.0038,12.2752 -5.2813,5.2808 -9.4861,11.3912 -12.5823,18.3105 -2.9136,6.9196 -4.3981,14.3898 -4.3988,22.4021 l 0,53.8069 -28.949,0 c 0.9457,-1.6936 1.8813,-3.4172 2.6596,-5.2172 2.9134,-6.9196 4.3981,-14.3892 4.3988,-22.4026 l 0,-26.1871 c -3e-4,-8.0119 -1.4861,-15.4821 -4.3988,-22.4021 -2.9135,-6.9197 -6.9939,-13.0297 -12.2752,-18.3105 -5.281,-5.2806 -11.3905,-9.3617 -18.3108,-12.2752 -6.9193,-2.9136 -14.3895,-4.3982 -22.402,-4.3988 l -75.6976,0 z m 424.724,0 c -8.0124,3e-4 -15.4839,1.4852 -22.4022,4.3988 -6.9204,2.9135 -12.9058,6.9942 -18.0037,12.2752 -5.2811,5.2808 -9.486,11.3912 -12.5824,18.3105 -2.9137,6.7376 -4.3981,14.0834 -4.3988,22.0954 l 0,26.1872 c 0,8.0123 1.4858,15.4829 4.3988,22.4022 3.0957,6.9203 7.3008,13.0298 12.5824,18.3108 5.0985,5.2807 11.083,9.3613 18.0037,12.2752 6.9196,2.9134 14.3895,4.3988 22.4022,4.3988 l 115.7966,0 0,-29.4606 -113.9554,0 c -7.8303,0 -14.3824,-2.7202 -19.8449,-8.1835 -2.0033,-2.1853 -3.7602,-4.6338 -5.2169,-7.3652 -1.4567,-2.7312 -2.3981,-5.7019 -2.7621,-8.7976 l 158.9646,0 0,-29.7673 c -4e-4,-8.0123 -1.4855,-15.3574 -4.3985,-22.0954 -2.9144,-6.9197 -6.9957,-13.0297 -12.2753,-18.3105 -5.281,-5.2806 -11.3917,-9.3617 -18.3107,-12.2752 -6.9196,-2.9136 -14.3896,-4.3982 -22.4025,-4.3988 l -75.5949,0 z m 774.5687,0 c -8.0123,3e-4 -15.4835,1.4852 -22.4022,4.3988 -6.9203,2.9135 -12.905,6.9942 -18.0036,12.2752 -5.2811,5.2808 -9.4868,11.3912 -12.5825,18.3105 -2.9136,6.9196 -4.2966,14.3898 -4.2963,22.4021 l 0,26.1871 c 0,8.0128 1.3827,15.483 4.2963,22.4026 3.0957,6.7377 7.3011,12.7228 12.5825,18.0038 5.0989,5.2807 11.0824,9.3613 18.0036,12.2752 6.9193,2.9134 14.3899,4.3988 22.4022,4.3988 l 75.6975,0 c 8.0122,0 15.4831,-1.4858 22.4021,-4.3988 6.9199,-2.9135 13.0301,-6.9945 18.3107,-12.2752 5.2808,-5.281 9.3613,-11.2661 12.2753,-18.0038 2.9133,-6.9196 4.3989,-14.3892 4.3989,-22.4026 l 0,-26.1871 c -8e-4,-8.0119 -1.4856,-15.4821 -4.3989,-22.4021 -2.914,-6.9197 -6.9942,-13.0297 -12.2753,-18.3105 -5.2809,-5.2806 -11.3904,-9.3617 -18.3107,-12.2752 -6.9193,-2.9136 -14.3899,-4.3982 -22.4021,-4.3988 l -75.6975,0 z m -1197.3492,29.4606 71.8105,0 c 7.8297,0 14.4842,2.7209 19.9472,8.1835 2.5493,2.5496 4.5788,5.6446 6.0352,9.1039 1.4566,3.2777 2.148,6.8366 2.1483,10.8436 l 0,25.6755 c -3e-4,3.8241 -0.6917,7.4857 -2.1483,10.9454 -1.4568,3.2779 -3.4859,6.2486 -6.0352,8.7975 -5.463,5.4629 -12.1175,8.1831 -19.9472,8.1835 l -8.8997,0 -62.9108,0 c -7.8304,0 -14.4846,-2.7202 -19.9472,-8.1835 -2.5493,-2.5496 -4.5785,-5.5196 -6.0351,-8.7975 -1.4567,-3.4597 -2.1488,-7.1217 -2.1483,-10.9454 l 0,-25.6755 c -5e-4,-4.0064 0.6916,-7.5655 2.1483,-10.8436 1.4564,-3.4596 3.4855,-6.5543 6.0351,-9.1039 5.463,-5.4626 12.1168,-8.1839 19.9472,-8.1835 z m 212.3619,0 71.8107,0 c 7.8296,0 14.4844,2.7209 19.9469,8.1835 5.4631,5.4629 8.1836,12.1164 8.1836,19.9475 l 0,25.6755 c -3e-4,8.0123 -2.7202,14.6445 -8.1836,19.7429 -5.4628,5.4629 -12.1173,8.1831 -19.9469,8.1835 l -53.7046,0 -46.2368,0 0,-27.9264 0,-14.6279 0,-11.0476 c 0,-4.0064 0.6915,-7.5655 2.1484,-10.8436 1.6386,-3.4596 3.7922,-6.5543 6.3419,-9.1039 5.0989,-5.4626 11.6284,-8.1839 19.6404,-8.1835 z m 212.2598,0 71.9127,0 c 7.8297,0 14.4848,2.7209 19.9472,8.1835 2.5493,2.5496 4.476,5.6446 5.933,9.1039 1.4567,3.2777 2.2505,6.8147 2.2505,10.6386 l -128.1744,0 c 0,-3.8236 0.7939,-7.3605 2.2509,-10.6386 1.4567,-3.4596 3.4855,-6.5543 6.0352,-9.1039 5.4625,-5.4626 12.0149,-8.1839 19.8449,-8.1835 z m 424.2126,0 71.81,0 c 7.8302,0 14.4848,2.7209 19.9474,8.1835 5.463,5.4629 8.1836,12.1164 8.1836,19.9475 l 0,25.6755 c -4e-4,8.0123 -2.7202,14.6445 -8.1836,19.7429 -5.3411,5.3412 -11.8313,8.0644 -19.4358,8.1835 l -100.4525,0 0,-27.9264 0,-14.6279 0,-11.0476 c 0,-4.0064 0.6923,-7.5655 2.148,-10.8436 1.6393,-3.4596 3.691,-6.5543 6.24,-9.1039 5.0987,-5.4626 11.73,-8.1839 19.7429,-8.1835 z m 350.4583,0 71.8105,0 c 7.83,0 14.4842,2.7209 19.9472,8.1835 2.5494,2.5496 4.5786,5.6446 6.0352,9.1039 1.457,3.2777 2.1487,6.8366 2.1483,10.8436 l 0,25.6755 c 0,3.8241 -0.6913,7.4857 -2.1483,10.9454 -1.4569,3.2779 -3.4858,6.2486 -6.0352,8.7975 -5.463,5.4629 -12.1184,8.1831 -19.9472,8.1835 l -71.8105,0 c -7.8303,0 -14.4845,-2.7202 -19.9471,-8.1835 -2.5497,-2.5496 -4.5795,-5.5196 -6.0352,-8.7975 -1.4573,-3.4597 -2.1479,-7.1217 -2.1483,-10.9454 l 0,-25.6755 c 0,-4.0064 0.691,-7.5655 2.1483,-10.8436 1.4564,-3.4596 3.4855,-6.5543 6.0352,-9.1039 5.4626,-5.4626 12.1168,-8.1839 19.9471,-8.1835 z"
         style="font-size:83.44415283px;font-style:normal;font-variant:normal;font-weight:bold;font-stretch:normal;text-align:start;line-height:125%;writing-mode:lr-tb;text-anchor:start;fill:#c8c8c8;fill-opacity:1;stroke:none;display:inline;font-family:Dekers_Bold;-inkscape-font-specification:Dekers_Bold Bold"
         inkscape:connector-curvature="0" />
    </g>
  </g>
</svg>
